<svg width="116" height="99" viewBox="0 0 146 99" fill="none" xmlns="http://www.w3.org/2000/svg">
<g clip-path="url(#clip0_415_5)">
<path d="M13.29 7.16H8.97L6.57 25.67L4.5 7.16H0.81L3.81 32H8.64L11.13 14.54L13.62 32H18.45L21.45 7.16H17.76L15.69 25.67L13.29 7.16ZM36.3691 23.42H32.8291V25.79C32.8291 27.77 32.3191 29.48 30.0391 29.48C27.8491 29.48 27.2491 27.92 27.2491 25.79V20.63H36.3691V12.83C36.3691 8.54 33.9091 6.65 30.0391 6.65C26.1691 6.65 23.7391 8.54 23.7391 12.83V26.45C23.7391 30.74 26.1991 32.51 30.0691 32.51C33.9391 32.51 36.3691 30.74 36.3691 26.45V23.42ZM32.8291 17.6H27.2491V13.37C27.2491 11.24 27.8491 9.68 30.0091 9.68C32.3191 9.68 32.8291 11.39 32.8291 13.37V17.6ZM47.7209 32C52.0409 32 52.4009 29.21 52.4009 25.7V24.59C52.4009 22.37 52.3409 19.67 48.9209 19.25C52.1009 18.86 52.2509 16.22 52.2509 13.97V12.89C52.2509 9.71 51.6509 7.16 47.5709 7.16H39.7709V32H47.7209ZM48.8609 25.19C48.8609 27.98 48.4409 28.97 46.3109 28.97H43.2809V20.75H46.4609C47.8109 20.75 48.8609 21.32 48.8609 23.57V25.19ZM48.7109 14.72C48.7109 16.7 48.1709 17.69 46.3109 17.69H43.2809V10.19H46.1609C48.2009 10.19 48.6809 11.12 48.7109 13.67V14.72Z" fill="white"/>
<path d="M10.71 57.79C10.71 59.77 10.2 61.48 7.92 61.48C5.73 61.48 5.13 59.92 5.13 57.79V45.37C5.13 43.24 5.73 41.68 7.89 41.68C10.2 41.68 10.71 43.39 10.71 45.37V48.04H14.25V44.83C14.25 40.54 11.79 38.65 7.92 38.65C4.05 38.65 1.62 40.54 1.62 44.83V58.45C1.62 62.74 4.08 64.51 7.95 64.51C11.82 64.51 14.25 62.74 14.25 58.45V54.31H10.71V57.79ZM29.8959 64C29.7159 63.52 29.6559 62.53 29.6559 61.45V44.74C29.6559 40.6 27.1959 38.65 23.3259 38.65C19.4559 38.65 17.0259 40.63 17.0259 44.71V47.35H20.5359V45.19C20.5359 42.34 21.8559 41.68 23.3259 41.68C24.7659 41.68 26.1159 42.31 26.1159 45.16V48.76C19.5459 49.6 17.0259 49.96 17.0259 54.79V58.72C17.0259 62.5 19.2759 64.45 22.0959 64.45C23.7759 64.45 25.2159 63.73 26.2359 62.29C26.2959 63.07 26.3559 63.64 26.4759 64H29.8959ZM26.1159 56.86C26.0859 59.47 25.4259 61.48 23.1759 61.48C21.1959 61.48 20.5359 59.92 20.5359 58.15V55.45C20.5359 53.05 21.6159 52.27 26.1159 51.88V56.86ZM46.1077 64C45.8977 63.37 45.8677 61.87 45.8677 60.49V56.77C45.8677 54.55 45.7777 52.24 42.5677 51.79C45.6577 51.16 45.8677 48.73 45.8677 46.72V45.01C45.8677 41.98 45.4477 39.16 41.1877 39.16H33.2377V64H36.7477V53.32H39.8677C41.1277 53.32 42.3277 53.77 42.3277 56.05V59.47C42.3277 61.06 42.3277 63.22 42.6277 64H46.1077ZM42.3277 47.59C42.3277 49.51 41.7577 50.29 39.9277 50.29H36.7477V42.19H39.8377C41.7577 42.19 42.3277 43.12 42.3277 45.52V47.59ZM57.1838 64C61.5038 64 61.8638 61.21 61.8638 57.7V56.59C61.8638 54.37 61.8038 51.67 58.3838 51.25C61.5638 50.86 61.7138 48.22 61.7138 45.97V44.89C61.7138 41.71 61.1138 39.16 57.0338 39.16H49.2338V64H57.1838ZM58.3238 57.19C58.3238 59.98 57.9038 60.97 55.7738 60.97H52.7438V52.75H55.9238C57.2738 52.75 58.3238 53.32 58.3238 55.57V57.19ZM58.1738 46.72C58.1738 48.7 57.6338 49.69 55.7738 49.69H52.7438V42.19H55.6238C57.6638 42.19 58.1438 43.12 58.1738 45.67V46.72ZM64.872 58.45C64.872 62.74 67.332 64.51 71.202 64.51C75.072 64.51 77.502 62.74 77.502 58.45V44.83C77.502 40.54 75.042 38.65 71.172 38.65C67.302 38.65 64.872 40.54 64.872 44.83V58.45ZM73.962 57.79C73.962 59.77 73.452 61.48 71.172 61.48C68.982 61.48 68.382 59.92 68.382 57.79V45.37C68.382 43.24 68.982 41.68 71.142 41.68C73.452 41.68 73.962 43.39 73.962 45.37V57.79ZM81.0209 39.16V64H84.5609V46.03C84.5609 43.12 85.6409 41.68 87.5309 41.68C88.9709 41.68 90.1409 42.52 90.1409 45.19V64H93.6509V44.71C93.6509 40.21 91.1609 38.71 88.6109 38.71C86.8109 38.71 85.3709 39.46 84.3809 41.02L84.2309 39.16H81.0209Z" fill="white"/>
<path d="M10.71 89.79C10.71 91.77 10.2 93.48 7.92 93.48C5.73 93.48 5.13 91.92 5.13 89.79V77.37C5.13 75.24 5.73 73.68 7.89 73.68C10.2 73.68 10.71 75.39 10.71 77.37V80.04H14.25V76.83C14.25 72.54 11.79 70.65 7.92 70.65C4.05 70.65 1.62 72.54 1.62 76.83V90.45C1.62 94.74 4.08 96.51 7.95 96.51C11.82 96.51 14.25 94.74 14.25 90.45V86.31H10.71V89.79ZM29.8959 96C29.7159 95.52 29.6559 94.53 29.6559 93.45V76.74C29.6559 72.6 27.1959 70.65 23.3259 70.65C19.4559 70.65 17.0259 72.63 17.0259 76.71V79.35H20.5359V77.19C20.5359 74.34 21.8559 73.68 23.3259 73.68C24.7659 73.68 26.1159 74.31 26.1159 77.16V80.76C19.5459 81.6 17.0259 81.96 17.0259 86.79V90.72C17.0259 94.5 19.2759 96.45 22.0959 96.45C23.7759 96.45 25.2159 95.73 26.2359 94.29C26.2959 95.07 26.3559 95.64 26.4759 96H29.8959ZM26.1159 88.86C26.0859 91.47 25.4259 93.48 23.1759 93.48C21.1959 93.48 20.5359 91.92 20.5359 90.15V87.45C20.5359 85.05 21.6159 84.27 26.1159 83.88V88.86ZM42.6577 96V92.97H36.7477V71.16H33.2377V96H42.6577ZM53.6885 89.79C53.6885 91.77 53.1785 93.48 50.8985 93.48C48.7085 93.48 48.1085 91.92 48.1085 89.79V77.37C48.1085 75.24 48.7085 73.68 50.8685 73.68C53.1785 73.68 53.6885 75.39 53.6885 77.37V80.04H57.2285V76.83C57.2285 72.54 54.7685 70.65 50.8985 70.65C47.0285 70.65 44.5985 72.54 44.5985 76.83V90.45C44.5985 94.74 47.0585 96.51 50.9285 96.51C54.7985 96.51 57.2285 94.74 57.2285 90.45V86.31H53.6885V89.79ZM72.9945 96V71.16H69.4545V89.13C69.4545 92.04 68.3745 93.48 66.4845 93.48C65.0445 93.48 63.8745 92.64 63.8745 89.97V71.16H60.3645V90.45C60.3645 94.95 62.8545 96.45 65.4045 96.45C67.2045 96.45 68.6445 95.7 69.6345 94.14L69.7845 96H72.9945ZM86.1635 96V92.97H80.2535V71.16H76.7435V96H86.1635ZM100.882 96C100.702 95.52 100.642 94.53 100.642 93.45V76.74C100.642 72.6 98.1823 70.65 94.3123 70.65C90.4423 70.65 88.0123 72.63 88.0123 76.71V79.35H91.5223V77.19C91.5223 74.34 92.8423 73.68 94.3123 73.68C95.7523 73.68 97.1023 74.31 97.1023 77.16V80.76C90.5323 81.6 88.0123 81.96 88.0123 86.79V90.72C88.0123 94.5 90.2623 96.45 93.0823 96.45C94.7623 96.45 96.2023 95.73 97.2223 94.29C97.2823 95.07 97.3423 95.64 97.4623 96H100.882ZM97.1023 88.86C97.0723 91.47 96.4123 93.48 94.1623 93.48C92.1823 93.48 91.5223 91.92 91.5223 90.15V87.45C91.5223 85.05 92.6023 84.27 97.1023 83.88V88.86ZM109.838 96V74.19H113.408V71.16H102.758V74.19H106.298V96H109.838ZM115.556 90.45C115.556 94.74 118.016 96.51 121.886 96.51C125.756 96.51 128.186 94.74 128.186 90.45V76.83C128.186 72.54 125.726 70.65 121.856 70.65C117.986 70.65 115.556 72.54 115.556 76.83V90.45ZM124.646 89.79C124.646 91.77 124.136 93.48 121.856 93.48C119.666 93.48 119.066 91.92 119.066 89.79V77.37C119.066 75.24 119.666 73.68 121.826 73.68C124.136 73.68 124.646 75.39 124.646 77.37V89.79ZM144.574 96C144.364 95.37 144.334 93.87 144.334 92.49V88.77C144.334 86.55 144.244 84.24 141.034 83.79C144.124 83.16 144.334 80.73 144.334 78.72V77.01C144.334 73.98 143.914 71.16 139.654 71.16H131.704V96H135.214V85.32H138.334C139.594 85.32 140.794 85.77 140.794 88.05V91.47C140.794 93.06 140.794 95.22 141.094 96H144.574ZM140.794 79.59C140.794 81.51 140.224 82.29 138.394 82.29H135.214V74.19H138.304C140.224 74.19 140.794 75.12 140.794 77.52V79.59Z" fill="white"/>
</g>
<defs>
<clipPath id="clip0_415_5">
<rect width="146" height="99" fill="white"/>
</clipPath>
</defs>
</svg>
