<svg width="1440" height="2073" viewBox="0 0 1440 2073" fill="none" xmlns="http://www.w3.org/2000/svg">
<ellipse cx="1217.4" cy="171.013" rx="5.86387" ry="5.33079" fill="white"/>
<circle cx="1089" cy="213" r="4" fill="white" fill-opacity="0.36"/>
<ellipse opacity="0.6" cx="531.323" cy="1012.74" rx="5.33079" ry="5.86387" fill="white"/>
<circle opacity="0.6" cx="1241.38" cy="1415.22" r="5.33079" fill="white"/>
<circle opacity="0.6" cx="906.078" cy="1369.91" r="2.66539" fill="white"/>
<circle opacity="0.6" cx="483.346" cy="438.618" r="5.33079" fill="white"/>
<circle opacity="0.6" cx="448.5" cy="477.5" r="2.5" fill="white"/>
<circle opacity="0.6" cx="1039.24" cy="811.094" r="5.54233" transform="rotate(-45 1039.24 811.094)" fill="white"/>
<circle opacity="0.6" cx="1348.41" cy="984.262" r="3.52899" transform="rotate(-45 1348.41 984.262)" fill="white" fill-opacity="0.47"/>
<circle cx="467.886" cy="1185.46" r="5.86387" fill="white" fill-opacity="0.3"/>
<circle cx="238.13" cy="1341.65" r="5.33079" fill="white" fill-opacity="0.16"/>
<circle cx="96.3308" cy="943.977" r="5.33079" fill="white" fill-opacity="0.54"/>
<circle cx="391.656" cy="800.046" r="4.26463" fill="white" fill-opacity="0.56"/>
<ellipse cx="132.864" cy="554.331" rx="5.86387" ry="5.33079" fill="white" fill-opacity="0.66"/>
<circle cx="200.281" cy="109.709" r="3.73155" fill="white" fill-opacity="0.53"/>
<circle cx="1344.8" cy="303.216" r="3.19847" fill="white" fill-opacity="0.37"/>
<ellipse cx="629.41" cy="203.53" rx="5.33079" ry="5.86387" fill="white"/>
<circle cx="976.532" cy="541.466" r="5.54233" transform="rotate(-45 976.532 541.466)" fill="white"/>
<circle cx="545.183" cy="248.842" r="3.19847" fill="white" fill-opacity="0.37"/>
<circle cx="949.098" cy="633.171" r="3.3254" transform="rotate(-45 949.098 633.171)" fill="white" fill-opacity="0.37"/>
<circle cx="402.851" cy="214.192" r="1.59924" fill="white" fill-opacity="0.37"/>
<circle cx="823.69" cy="709.2" r="1.6627" transform="rotate(-45 823.69 709.2)" fill="white" fill-opacity="0.37"/>
<circle cx="515.331" cy="60.1323" r="2.13232" fill="white" fill-opacity="0.37"/>
<circle cx="1120.13" cy="380.132" r="2.13232" fill="white" fill-opacity="0.37"/>
</svg>
